<svg width="256" height="256" viewBox="0 0 256 256" fill="none" xmlns="http://www.w3.org/2000/svg">
  <defs>
    <linearGradient id="ring" x1="36" y1="36" x2="220" y2="220" gradientUnits="userSpaceOnUse">
      <stop stop-color="#6FD9FF"/>
      <stop offset="1" stop-color="#005CA8"/>
    </linearGradient>
    <linearGradient id="mark" x1="90" y1="76" x2="180" y2="182" gradientUnits="userSpaceOnUse">
      <stop stop-color="#31C3FF"/>
      <stop offset="1" stop-color="#0069BC"/>
    </linearGradient>
  </defs>
  <circle cx="128" cy="128" r="104" stroke="url(#ring)" stroke-width="12"/>
  <path d="M111 78C92 78 75 84 62 98C48 112 41 129 41 149C41 169 48 186 62 200C75 214 92 221 111 221C129 221 145 215 158 204L145 189C136 196 125 200 113 200C99 200 87 195 77 185C68 175 63 163 63 149C63 135 68 123 77 113C87 103 99 98 113 98C125 98 136 102 145 109L158 94C145 83 129 78 111 78Z" fill="url(#mark)"/>
  <path d="M133 77H155V137L207 77H234L177 142L237 221H209L164 161L155 171V221H133V77Z" fill="url(#mark)"/>
</svg>
